<svg width="31" height="31" viewBox="0 0 31 31" fill="none" xmlns="http://www.w3.org/2000/svg">
<g clip-path="url(#clip0)">
<path d="M15.4988 24.8266C20.6375 24.8266 24.8032 20.6613 24.8032 15.5231C24.8032 10.385 20.6375 6.21973 15.4988 6.21973C10.3601 6.21973 6.19434 10.385 6.19434 15.5231C6.19434 20.6613 10.3601 24.8266 15.4988 24.8266Z" fill="white"/>
<path d="M15.4746 20.3281H15.4986C16.7835 20.3227 18.0138 19.8083 18.9202 18.8976C19.8265 17.9869 20.3349 16.7542 20.334 15.4694L23.0716 14.3813C23.0716 13.3275 24.5329 13.0127 25.5834 13.0127C26.634 13.0127 27.7565 14.2753 27.7565 15.3257L31.0177 15.4763C31.0172 17.5161 30.6148 19.5358 29.8332 21.4199C29.0517 23.3041 27.9065 25.0158 26.463 26.4572C25.0195 27.8986 23.3061 29.0414 21.4206 29.8204C19.5352 30.5993 17.5147 30.9991 15.4746 30.9968" fill="url(#paint0_linear)"/>
<path d="M27.3486 15.524V15.4795C27.3486 14.974 27.1478 14.4892 26.7903 14.1318C26.4328 13.7744 25.948 13.5736 25.4425 13.5736C24.937 13.5736 24.4522 13.7744 24.0947 14.1318C23.7372 14.4892 23.5364 14.974 23.5364 15.4795V15.524H20.33V15.5034C20.3245 14.2184 19.8102 12.9878 18.8995 12.0811C17.9888 11.1743 16.7559 10.6652 15.4707 10.6652L14.6323 8.05795C13.5817 8.05795 12.8768 6.62086 12.8768 5.567C12.8768 4.51314 12.4114 3.43874 13.4654 3.43874L15.4707 3.77116e-07C17.5098 -0.000449022 19.5291 0.400758 21.4132 1.18071C23.2973 1.96066 25.0092 3.10407 26.4513 4.54565C27.8933 5.98723 29.0373 7.69873 29.8177 9.5824C30.5982 11.4661 30.9999 13.485 30.9999 15.524H27.3486Z" fill="url(#paint1_linear)"/>
<path d="M7.65504 18.0081L3.70262 18.1928L1.50863e-06 15.5308C-0.000897515 13.4916 0.400022 11.4722 1.17986 9.58793C1.95969 7.70369 3.10316 5.99154 4.54494 4.54928C5.98672 3.10702 7.69856 1.96292 9.58267 1.18234C11.4668 0.401765 13.4862 -1.98132e-07 15.5257 0V3.6543H15.4812C14.9757 3.65839 14.4925 3.8631 14.1379 4.2234C13.7833 4.58371 13.5864 5.07009 13.5905 5.57555C13.5946 6.08101 13.7993 6.56415 14.1597 6.91868C14.52 7.27321 15.0065 7.47009 15.512 7.466V10.6721H15.4914C14.2063 10.6775 12.9756 11.1918 12.0687 12.1024C11.1618 13.013 10.6527 14.2457 10.6527 15.5308L7.64135 18.0081" fill="url(#paint2_linear)"/>
<path d="M17.4523 25.4438C17.4523 25.9492 17.2514 26.434 16.894 26.7914C16.5365 27.1488 16.0517 27.3496 15.5462 27.3496V31.0005C13.5056 31.0032 11.4845 30.6037 9.59848 29.8247C7.71245 29.0458 5.99849 27.9027 4.55462 26.4609C3.11075 25.0191 1.9653 23.3069 1.18378 21.4221C0.402261 19.5373 -1.78439e-06 17.5169 0 15.4766H3.65471V15.521C3.65471 16.0265 3.85552 16.5113 4.21298 16.8687C4.57044 17.2261 5.05525 17.4269 5.56077 17.4269C6.06629 17.4269 6.5511 17.2261 6.90856 16.8687C7.26601 16.5113 7.46683 16.0265 7.46683 15.521V15.4766H10.6698V15.4971C10.6753 16.7818 11.1897 18.012 12.1005 18.9182C13.0113 19.8245 14.2442 20.3328 15.5291 20.3319V23.5379C15.7808 23.5357 16.0305 23.5833 16.2638 23.6781C16.497 23.7728 16.7091 23.9129 16.8879 24.0901C17.0668 24.2673 17.2087 24.4781 17.3055 24.7105C17.4024 24.9428 17.4523 25.1921 17.4523 25.4438Z" fill="url(#paint3_linear)"/>
<path d="M18.1121 12.9404V18.0079H16.822V15.2706L15.59 17.303H15.46L14.2349 15.2877V18.025H12.9414V12.9404H14.2349L15.525 15.1063L16.822 12.9404H18.1121Z" fill="#262626"/>
</g>
<defs>
<linearGradient id="paint0_linear" x1="15.4746" y1="22.0013" x2="31.0006" y2="22.0013" gradientUnits="userSpaceOnUse">
<stop stop-color="#F47521"/>
<stop offset="1" stop-color="#DDDB4A"/>
</linearGradient>
<linearGradient id="paint1_linear" x1="21.887" y1="15.524" x2="21.887" y2="0" gradientUnits="userSpaceOnUse">
<stop stop-color="#6ABD45"/>
<stop offset="0.463542" stop-color="#55B384"/>
<stop offset="1" stop-color="#3CA7CD"/>
</linearGradient>
<linearGradient id="paint2_linear" x1="15.5257" y1="9.09812" x2="1.8508e-06" y2="9.09812" gradientUnits="userSpaceOnUse">
<stop stop-color="#4457A6"/>
<stop offset="1" stop-color="#6CCCDF"/>
</linearGradient>
<linearGradient id="paint3_linear" x1="8.71929" y1="15.4766" x2="8.71929" y2="31.0005" gradientUnits="userSpaceOnUse">
<stop stop-color="#C54E9D"/>
<stop offset="1" stop-color="#DD7F27"/>
</linearGradient>
<clipPath id="clip0">
<rect width="31" height="31" fill="white"/>
</clipPath>
</defs>
</svg>
